<svg xmlns="http://www.w3.org/2000/svg" xmlns:xlink="http://www.w3.org/1999/xlink" width="16" height="15" viewBox="0 0 16 15"><defs><path id="inrga" d="M960.61 143a.4.4 0 0 1-.38-.4v-2.26l-3.55 3.66c.52.73.84 1.62.84 2.6 0 2.43-1.91 4.4-4.26 4.4a4.33 4.33 0 0 1-4.26-4.4c0-2.43 1.9-4.4 4.26-4.4 1.13 0 2.16.47 2.92 1.22l3.5-3.62h-2.16a.4.4 0 0 1-.4-.4c0-.22.18-.4.4-.4h3.1c.08 0 .15.03.22.08l.05.02.01.04a.4.4 0 0 1 .1.23v3.23a.4.4 0 0 1-.39.4c-.21 0 0 0 0 0zm-7.35 0a3.54 3.54 0 0 0-3.49 3.6c0 1.99 1.56 3.6 3.49 3.6a3.54 3.54 0 0 0 3.48-3.6c0-1.99-1.56-3.6-3.48-3.6-1.93 0 0 0 0 0z"/></defs><g><g transform="translate(-947 -138)"><use fill="#9fcede" xlink:href="#inrga"/></g></g></svg>